<!DOCTYPE svg PUBLIC "-//W3C//DTD SVG 1.1//EN" "http://www.w3.org/Graphics/SVG/1.1/DTD/svg11.dtd">
<!-- Uploaded to: SVG Repo, www.svgrepo.com, Transformed by: SVG Repo Mixer Tools -->
<svg height="800px" width="800px" version="1.1" id="Layer_1" xmlns="http://www.w3.org/2000/svg" xmlns:xlink="http://www.w3.org/1999/xlink" viewBox="0 0 393.309 393.309" xml:space="preserve" fill="#000000">
<g id="SVGRepo_bgCarrier" stroke-width="0"/>
<g id="SVGRepo_tracerCarrier" stroke-linecap="round" stroke-linejoin="round"/>
<g id="SVGRepo_iconCarrier"> <circle style="fill:#4acdd5;" cx="196.655" cy="196.655" r="196.655"/> <path style="fill:#BDBDBE;" d="M59.863,45.511c-0.453,0.129-0.97,0.323-1.487,0.517l1.164-5.43c-3.038,2.069-5.43,3.943-7.24,5.624 c-1.099-4.848-1.034-10.02,0.453-15.127c5.689,1.616,10.537,4.655,14.287,8.663C63.547,41.697,61.285,43.701,59.863,45.511z"/> <path style="fill:#DEDEDF;" d="M181.269,153.471l-0.065-0.065l0,0c-2.586-9.697-4.331-27.733-26.376-60.768 c-41.697-62.642-92.186-31.547-93.026-31.095c-1.616-0.065-29.867-2.069-2.263-20.945l-1.164,5.43 c0.453-0.259,1.034-0.388,1.487-0.517c4.267-5.43,16.162-13.123,49.196-12.218l-12.606,7.305c0.646-0.129,28.38-5.883,51.329,12.735 h-11.442c0,0,18.618,5.818,38.659,38.141l-9.762-4.719C165.301,86.885,189.285,121.212,181.269,153.471z"/> <g> <path style="fill:#D6D6D8;" d="M61.673,263.758l5.56,0.129l-5.56,14.158l-11.96-2.715l-12.606-53.075l8.792-15.386l46.158-9.568 c3.297,15.192,15.58,25.406,23.079,30.448l-57.794,2.004L61.673,263.758z"/> <polygon style="fill:#D6D6D8;" points="283.022,289.422 251.798,301.511 245.333,316.897 235.249,316.574 215.984,315.604 227.879,311.079 229.56,292.267 265.115,278.885 213.657,235.572 256.905,235.572 259.038,270.287 "/> </g> <path style="fill:#F1F3F7;" d="M300.477,261.947c-7.887-13.705,19.459-41.051,5.236-80.42c-14.222-39.434-57.859-17.39-99.362-17.39 s-9.438-8.404-51.523-71.564c-42.02-63.03-93.026-30.966-93.026-30.966l-5.236,23.661l1.552,5.818l-3.62,30.772l-5.818,8.145 l13.705,12.994l12.606-4.202v-8.404l5.818-10.537l11.055-2.651l11.572-16.873c8.598,22.109,7.887,33.681-8.404,72.016 c-16.291,38.4,26.246,58.893,26.246,58.893l-8.404,59.41l-4.719,49.455l-13.705,5.818l0,0l0,0l20.493,4.202l9.956-4.719 l8.404-51.006l18.941-58.893H256.97l2.069,34.715l38.917,31.095l-15.192,44.218l-8.986,2.65l16.873,7.37l8.986-4.202l18.36-57.859 C317.867,293.495,308.493,275.653,300.477,261.947z"/> <polygon style="fill:#393D47;" points="61.673,278.044 80.356,290.133 80.356,264.275 67.232,263.887 67.232,263.887 "/> <path style="fill:#FCFCFD;" d="M297.051,172.994c0,0,30.836-9.956,38.788,9.438s7.952,66.133,20.428,68.59 c0,0-9.438-0.453-16.356-10.408s0,26.117,16.356,34.909l-15.451-6.594c0,0,11.442,19.394-4.008,40.275 c0,0-30.384-19.394-23.855-50.23s25.859-88.113-11.442-75.119L297.051,172.994z"/> <polygon style="fill:#393D47;" points="212.493,337.455 235.119,328.921 235.184,316.574 215.984,315.604 "/> <path style="fill:#FCFCFD;" d="M99.879,26.182L99.879,26.182c-15.58,7.499-22.109,26.182-14.61,41.826l0,0 C100.848,60.509,107.378,41.826,99.879,26.182z"/> <path style="fill:#FF6799;" d="M177.131,137.051c0,0-47.192,30.319-69.689,0c0,0-47.386,69.236,13.834,94.319 c0,0-22.885-38.335,6.594-49.907s55.467-22.82,55.467-22.82L177.131,137.051z"/> <g> <circle style="fill:#4acdd5;" cx="171.572" cy="149.98" r="3.426"/> <circle style="fill:#4acdd5;" cx="161.875" cy="154.376" r="3.426"/> <circle style="fill:#4acdd5;" cx="151.143" cy="157.802" r="3.426"/> <circle style="fill:#4acdd5;" cx="139.701" cy="159.741" r="3.426"/> <circle style="fill:#4acdd5;" cx="96.453" cy="196.331" r="2.392"/> <circle style="fill:#4acdd5;" cx="97.745" cy="184.76" r="3.426"/> <circle style="fill:#4acdd5;" cx="125.479" cy="160.97" r="4.655"/> <circle style="fill:#4acdd5;" cx="101.042" cy="171.701" r="4.655"/> <circle style="fill:#4acdd5;" cx="109.059" cy="157.802" r="6.335"/> </g> <g> <path style="fill:#FF6799;" d="M77.123,134.077c-1.099,0-2.133-0.453-2.909-1.293c-9.956-11.119-20.04-9.244-20.428-9.18 c-2.069,0.388-4.202-0.905-4.655-3.038c-0.453-2.069,0.84-4.202,2.909-4.655c0.646-0.129,14.739-3.103,27.992,11.636 c1.487,1.616,1.293,4.073-0.323,5.56C78.998,133.754,78.028,134.077,77.123,134.077z"/> <path style="fill:#FF6799;" d="M100.461,110.545c-0.84,0-1.681-0.323-2.392-0.84c-17.778-13.964-39.499-8.921-39.758-8.857 c-2.069,0.517-4.267-0.776-4.719-2.909c-0.517-2.069,0.776-4.267,2.909-4.719c1.034-0.259,25.665-5.947,46.352,10.343 c1.681,1.293,2.004,3.814,0.711,5.495C102.788,110.028,101.624,110.545,100.461,110.545z"/> <path style="fill:#FF6799;" d="M69.495,127.547c-0.711,0-1.422-0.129-2.069-0.646c-1.875-1.164-2.392-3.556-1.228-5.43 l16.937-27.345l16.226-42.214c0.776-2.004,3.038-3.038,5.107-2.263c2.004,0.776,3.038,3.103,2.263,5.107L90.376,97.358 c-0.065,0.259-0.259,0.453-0.323,0.646l-17.131,27.669C72.081,126.901,70.788,127.547,69.495,127.547z"/> </g> <circle style="fill:#4F5565;" cx="75.636" cy="85.139" r="3.103"/> <path style="fill:#6EB1E1;" d="M260.784,158.578v42.602h-58.311v-37.689l-9.438,0.065v45.123h77.511v-50.683 C270.481,157.931,266.343,158.19,260.784,158.578z"/> <path style="fill:#FF6799;" d="M260.784,201.244v-42.602c-7.499,0.517-17.713,1.552-24.501,2.844 c-3.491,0.711-17.131,1.745-20.622,1.745l-13.317,0.129v37.818h58.44V201.244z"/> <g> <polygon style="fill:#646B79;" points="265.826,367.127 290.521,367.127 290.521,355.556 273.713,348.186 "/> <polygon style="fill:#646B79;" points="94.448,346.053 88.63,360.21 111.709,360.21 114.877,350.255 "/> </g> </g>
</svg>